<svg width="26" height="21" viewBox="0 0 26 21" fill="none" xmlns="http://www.w3.org/2000/svg">
<path opacity="0.6" d="M25.4679 6.45025C25.4679 8.29313 24.789 9.74804 23.4311 11.009L12.9561 20.6114L2.48114 11.009C1.12327 9.84504 0.444336 8.29313 0.444336 6.45025C0.444336 4.70436 1.12327 3.15245 2.48114 1.98852C3.74202 0.824596 5.19688 0.242632 6.94271 0.242632C8.59155 0.242632 10.0464 0.824596 11.3073 1.89153L12.9561 3.44343L14.605 1.89153C17.1267 -0.339332 20.9094 -0.339332 23.4311 1.89153C24.789 3.15245 25.4679 4.70436 25.4679 6.45025ZM21.8793 9.55406C22.6552 8.7781 23.1402 7.71117 23.1402 6.54724C23.1402 5.28632 22.7522 4.31638 22.0733 3.63742C21.2973 2.86147 20.3274 2.57049 19.0665 2.57049C18.0966 2.57049 17.0297 3.05546 16.0598 3.9284L13.0531 6.64424L9.85243 3.83141C8.88252 2.86147 7.91262 2.47349 6.84572 2.47349C5.58484 2.47349 4.61493 2.86147 3.83901 3.54043C3.06308 4.21939 2.77211 5.18933 2.77211 6.45025C2.77211 7.71117 3.16007 8.68111 4.03299 9.45706L12.9561 17.7985L21.8793 9.55406Z" fill="#19174D"/>
</svg>

