<svg width="20" height="18" viewBox="0 0 20 18" fill="none" xmlns="http://www.w3.org/2000/svg">
<path d="M18.51 6.58604L13.0551 5.79327L10.6166 0.849715C10.55 0.714363 10.4405 0.604793 10.3051 0.538192C9.96565 0.370613 9.55315 0.510262 9.38342 0.849715L6.94495 5.79327L1.49006 6.58604C1.33967 6.60753 1.20217 6.67843 1.0969 6.78585C0.96963 6.91666 0.899499 7.09265 0.901916 7.27514C0.904333 7.45763 0.979101 7.6317 1.10979 7.75909L5.05647 11.6069L4.12405 17.0403C4.10218 17.1667 4.11617 17.2967 4.16442 17.4156C4.21267 17.5344 4.29326 17.6374 4.39705 17.7127C4.50083 17.7881 4.62366 17.8329 4.75161 17.842C4.87955 17.8512 5.00749 17.8243 5.12092 17.7644L10 15.1991L14.8791 17.7644C15.0123 17.8353 15.167 17.8589 15.3153 17.8331C15.6891 17.7687 15.9405 17.4142 15.876 17.0403L14.9436 11.6069L18.8903 7.75909C18.9977 7.65382 19.0686 7.51632 19.0901 7.36593C19.1481 6.98995 18.886 6.6419 18.51 6.58604ZM13.2828 11.0655L14.0584 15.5837L10 13.4525L5.94163 15.5858L6.71721 11.0677L3.4344 7.86651L7.9719 7.20694L10 3.09698L12.0281 7.20694L16.5656 7.86651L13.2828 11.0655Z" fill="#899399"/>
</svg>
