<svg width="18" height="20" viewBox="0 0 18 20" fill="none" xmlns="http://www.w3.org/2000/svg">
<path opacity="1" d="M17.1215 15.8969C16.6793 14.8496 16.0377 13.8984 15.2324 13.0961C14.4295 12.2915 13.4784 11.65 12.4316 11.207C12.4222 11.2023 12.4129 11.2 12.4035 11.1953C13.8636 10.1406 14.8129 8.42266 14.8129 6.48438C14.8129 3.27344 12.2113 0.671875 9.00036 0.671875C5.78943 0.671875 3.18786 3.27344 3.18786 6.48438C3.18786 8.42266 4.13708 10.1406 5.59724 11.1977C5.58786 11.2023 5.57849 11.2047 5.56911 11.2094C4.51911 11.6523 3.57693 12.2875 2.76833 13.0984C1.96375 13.9013 1.32225 14.8524 0.87927 15.8992C0.444088 16.924 0.209384 18.0228 0.187864 19.1359C0.187238 19.161 0.191626 19.1858 0.200768 19.2091C0.20991 19.2324 0.223622 19.2537 0.241096 19.2716C0.25857 19.2895 0.279451 19.3037 0.302511 19.3134C0.325571 19.3231 0.350341 19.3281 0.375364 19.3281H1.78161C1.88474 19.3281 1.96677 19.2461 1.96911 19.1453C2.01599 17.3359 2.74255 15.6414 4.02693 14.357C5.35583 13.0281 7.12068 12.2969 9.00036 12.2969C10.8801 12.2969 12.6449 13.0281 13.9738 14.357C15.2582 15.6414 15.9847 17.3359 16.0316 19.1453C16.034 19.2484 16.116 19.3281 16.2191 19.3281H17.6254C17.6504 19.3281 17.6752 19.3231 17.6982 19.3134C17.7213 19.3037 17.7422 19.2895 17.7596 19.2716C17.7771 19.2537 17.7908 19.2324 17.8 19.2091C17.8091 19.1858 17.8135 19.161 17.8129 19.1359C17.7894 18.0156 17.5574 16.9258 17.1215 15.8969ZM9.00036 10.5156C7.92458 10.5156 6.91208 10.0961 6.15036 9.33438C5.38865 8.57266 4.96911 7.56016 4.96911 6.48438C4.96911 5.40859 5.38865 4.39609 6.15036 3.63437C6.91208 2.87266 7.92458 2.45312 9.00036 2.45312C10.0761 2.45312 11.0886 2.87266 11.8504 3.63437C12.6121 4.39609 13.0316 5.40859 13.0316 6.48438C13.0316 7.56016 12.6121 8.57266 11.8504 9.33438C11.0886 10.0961 10.0761 10.5156 9.00036 10.5156Z" fill="white"/>
</svg>
