<?xml version="1.0" standalone="no"?>
<!DOCTYPE svg PUBLIC "-//W3C//DTD SVG 20010904//EN"
 "http://www.w3.org/TR/2001/REC-SVG-20010904/DTD/svg10.dtd">
<svg version="1.0" xmlns="http://www.w3.org/2000/svg"
 width="600.000000pt" height="600.000000pt" viewBox="0 0 600.000000 600.000000"
 preserveAspectRatio="xMidYMid meet">
<metadata>
Created by potrace 1.11, written by Peter Selinger 2001-2013
</metadata>
<g transform="translate(0.000000,600.000000) scale(0.100000,-0.100000)"
fill="#000000" stroke="none">
<path d="M0 3000 l0 -3000 3000 0 3000 0 0 3000 0 3000 -3000 0 -3000 0 0
-3000z m3520 2475 c16 -9 36 -28 44 -44 8 -15 46 -149 85 -297 78 -300 347
-1338 391 -1509 16 -60 97 -373 180 -695 83 -322 164 -634 180 -695 16 -60 79
-303 140 -540 116 -446 183 -707 227 -881 31 -123 27 -178 -17 -227 l-28 -32
-465 -3 -466 -3 -34 31 c-41 36 -49 55 -76 180 -11 52 -50 236 -86 409 -37
173 -73 327 -81 343 -8 15 -24 30 -37 33 -12 3 -248 4 -524 3 -487 -3 -503 -4
-522 -23 -14 -15 -42 -127 -110 -440 -50 -231 -96 -432 -102 -446 -5 -14 -23
-40 -39 -58 l-29 -32 -450 3 -449 3 -25 23 c-26 24 -47 82 -47 126 0 30 54
243 295 1176 86 333 169 655 185 715 16 61 134 520 264 1020 129 501 246 953
260 1005 13 52 63 245 111 429 47 184 92 346 100 360 15 29 52 66 75 74 8 3
241 6 518 6 431 1 507 -1 532 -14z"/>
<path d="M2957 3894 c-3 -11 -26 -109 -52 -219 -59 -258 -113 -488 -174 -750
-66 -280 -76 -329 -68 -348 6 -15 36 -17 296 -17 273 0 291 1 300 19 6 10 8
21 5 23 -4 5 -66 280 -164 733 -21 99 -48 218 -59 265 -11 47 -29 132 -41 190
-22 107 -34 136 -43 104z"/>
</g>
</svg>
