<svg width="147" height="26" viewBox="0 0 147 26" fill="none" xmlns="http://www.w3.org/2000/svg">
<g clip-path="url(#clip0)">
<path d="M6.65263 0H11.4947C11.8534 0 12.0327 0.280576 12.1224 0.654676L18.1302 24.8777C18.2198 25.4389 17.9508 25.9065 17.5025 25.9065H13.2881C13.0191 25.9065 12.7501 25.6259 12.6604 25.3453L11.7637 20.9496C11.674 20.6691 11.5844 20.6691 11.405 20.6691H6.56296C6.38362 20.6691 6.20428 20.7626 6.20428 20.9496L5.3076 25.2518C5.21793 25.5324 5.0386 25.9065 4.67993 25.9065H0.644858C0.196517 25.9065 -0.0724876 25.4389 0.0171806 24.7842L6.02495 0.561151C6.20428 0.18705 6.38362 0 6.65263 0ZM10.4187 15.0576L8.984 8.23022L7.45964 15.0576C7.45964 15.3381 7.45964 15.3381 7.63898 15.3381H10.329C10.4187 15.3381 10.5084 15.2446 10.4187 15.0576Z" fill="white"/>
<path d="M25.5728 17.4892C25.3038 17.4892 25.2141 17.5827 25.2141 17.9568V25.4389C25.2141 25.7194 25.0348 26 24.7658 26H20.4617C20.1927 26 20.0134 25.7194 20.0134 25.4389V0.748201C20.0134 0.280576 20.1927 0 20.5514 0H26.4695C28.1732 0 29.6975 0.280576 30.8632 1.02878C32.9256 2.33813 34.0913 4.76978 34.0913 8.32374C34.0913 12.6259 32.8359 14.964 30.7736 16.2734C29.6079 17.1151 28.1732 17.3957 26.4695 17.3957H25.5728V17.4892ZM25.3935 5.33094C25.2141 5.33094 25.2141 5.33094 25.2141 5.61151V11.8777C25.2141 12.1583 25.2141 12.1583 25.3935 12.1583H26.6488C27.9938 12.1583 28.7112 10.8489 28.7112 8.69784C28.7112 6.73381 27.9938 5.42446 26.6488 5.42446H25.3935V5.33094Z" fill="white"/>
<path d="M47.6306 14.8705V0.841727C47.6306 0.374101 47.8996 0 48.2583 0H51.576C51.9347 0 52.2037 0.374101 52.2037 0.841727V25.0647C52.2037 25.5324 51.845 25.9065 51.576 25.9065H46.4649C46.1959 25.9065 45.9269 25.6259 45.8373 25.3453L41.8022 13L41.1745 11.036V25.0647C41.1745 25.5324 40.9055 25.9065 40.5468 25.9065H37.1395C36.7808 25.9065 36.5118 25.5324 36.5118 25.0647V0.841727C36.5118 0.374101 36.7808 0 37.1395 0H42.2505C42.5195 0 42.7885 0.280576 42.8782 0.561151L47.0926 13.0935L47.6306 14.8705Z" fill="white"/>
<path d="M56.1493 25.9065C55.7906 25.9065 55.5216 25.5324 55.5216 25.0647V0.841727C55.5216 0.374101 55.7906 0 56.1493 0H67.8958C68.2545 0 68.5235 0.374101 68.5235 0.841727V4.48921C68.5235 4.95683 68.1648 5.33094 67.8958 5.33094H60.9017C60.812 5.33094 60.7224 5.42446 60.7224 5.51799V9.63309C60.7224 9.72662 60.812 9.82014 60.9017 9.82014H66.5508C66.9095 9.82014 67.1785 10.1942 67.1785 10.6619V14.3094C67.1785 14.777 66.8198 15.1511 66.5508 15.1511H60.9017C60.812 15.1511 60.7224 15.2446 60.7224 15.3381V20.295C60.7224 20.3885 60.812 20.482 60.9017 20.482H67.8958C68.2545 20.482 68.5235 20.8561 68.5235 21.3237V24.9712C68.5235 25.4389 68.1648 25.813 67.8958 25.813H56.1493V25.9065Z" fill="white"/>
<path d="M76.9527 0H81.7947C82.1534 0 82.3327 0.280576 82.4224 0.654676L88.4302 24.8777C88.5198 25.4389 88.2508 25.9065 87.8025 25.9065H83.5881C83.3191 25.9065 83.0501 25.6259 82.9604 25.3453L82.0637 20.9496C81.9741 20.6691 81.8844 20.6691 81.7051 20.6691H77.0423C76.863 20.6691 76.6836 20.7626 76.6836 20.9496L75.787 25.2518C75.6973 25.5324 75.518 25.9065 75.1593 25.9065H71.2139C70.7656 25.9065 70.4965 25.4389 70.5862 24.7842L76.594 0.561151C76.5043 0.18705 76.6837 0 76.9527 0ZM80.7187 15.0576L79.284 8.23022L77.7597 15.0576C77.7597 15.3381 77.7597 15.3381 77.939 15.3381H80.629C80.7187 15.3381 80.8084 15.2446 80.7187 15.0576Z" fill="white"/>
<path d="M109.323 0.841727V25.0647C109.323 25.5324 109.054 25.9065 108.695 25.9065H104.75C104.391 25.9065 104.122 25.5324 104.122 25.0647V12.7194L101.88 20.0144C101.791 20.2014 101.701 20.295 101.522 20.295H98.0245C97.8452 20.295 97.7555 20.2014 97.6659 20.0144L95.4241 12.6259V24.9712C95.4241 25.4389 95.1551 25.813 94.7965 25.813H90.8511C90.4924 25.813 90.2234 25.4389 90.2234 24.9712V0.841727C90.2234 0.374101 90.4924 0 90.8511 0H96.1415C96.5002 0 96.6795 0.280576 96.7692 0.561151L99.8179 10.4748C99.9076 10.8489 99.9972 10.8489 100.087 10.4748L103.046 0.748201C103.225 0.280576 103.494 0 103.853 0H108.785C109.054 0 109.323 0.374101 109.323 0.841727Z" fill="white"/>
<path d="M117.841 0H122.683C123.042 0 123.221 0.280576 123.311 0.654676L129.319 24.8777C129.408 25.4389 129.139 25.9065 128.691 25.9065H124.476C124.207 25.9065 123.938 25.6259 123.849 25.3453L122.952 20.9496C122.862 20.6691 122.773 20.6691 122.593 20.6691H117.931C117.751 20.6691 117.572 20.7626 117.572 20.9496L116.675 25.2518C116.586 25.5324 116.406 25.9065 116.048 25.9065H112.102C111.654 25.9065 111.385 25.4389 111.475 24.7842L117.482 0.561151C117.303 0.18705 117.482 0 117.841 0ZM121.607 15.0576L120.172 8.23022L118.648 15.0576C118.648 15.3381 118.648 15.3381 118.827 15.3381H121.517C121.607 15.3381 121.607 15.2446 121.607 15.0576Z" fill="white"/>
<path d="M142.141 14.8705V0.841727C142.141 0.374101 142.41 0 142.769 0H146.087C146.445 0 146.714 0.374101 146.714 0.841727V25.0647C146.714 25.5324 146.356 25.9065 146.087 25.9065H140.976C140.707 25.9065 140.438 25.6259 140.348 25.3453L136.313 13L135.685 11.036V25.0647C135.685 25.5324 135.416 25.9065 135.057 25.9065H131.65C131.291 25.9065 131.022 25.5324 131.022 25.0647V0.841727C131.022 0.374101 131.291 0 131.65 0H136.761C137.03 0 137.299 0.280576 137.389 0.561151L141.514 13.0935L142.141 14.8705Z" fill="white"/>
</g>
<defs>
<clipPath id="clip0">
<path d="M0 0H146.714V26H0V0Z" fill="white"/>
</clipPath>
</defs>
</svg>
