<svg width="61" height="118" viewBox="0 0 61 118" fill="none" xmlns="http://www.w3.org/2000/svg">
    <path d="M61 26.3583V7.34838C61 3.30144 57.6854 0 53.6223 0H7.37774C3.31464 0 0 3.30144 0 7.34838V23.4296V110.652C0 114.699 3.31464 118 7.37774 118H53.5955C57.6586 118 60.9733 114.699 60.9733 110.652L61 26.3583ZM59.4763 110.652C59.4763 113.873 56.8567 116.509 53.5955 116.509H7.37774C4.1433 116.509 1.49693 113.9 1.49693 110.652V24.5478C9.78352 22.125 20.1017 21.5393 27.2656 21.7789C38.3589 22.1782 44.6139 32.4021 59.4763 28.3285V110.652ZM59.4763 26.6778C40.1499 30.8845 46.3514 19.7554 35.6858 18.5307C24.6192 17.2261 9.38256 20.5808 1.52366 23.0835V7.34838C1.52366 4.1268 4.1433 1.49097 7.40447 1.49097H53.6223C56.8567 1.49097 59.5031 4.10018 59.5031 7.34838V26.6778H59.4763Z" fill="white"/>
    <path d="M10.6122 6.46915H12.0289C12.1358 6.46915 12.1893 6.54902 12.216 6.65552L14.007 13.5513C14.0337 13.711 13.9535 13.8441 13.8199 13.8441H12.5635C12.4833 13.8441 12.4032 13.7643 12.3764 13.6844L12.1091 12.433C12.0824 12.3532 12.0557 12.3532 12.0022 12.3532H10.6122C10.5587 12.3532 10.5053 12.3798 10.5053 12.433L10.2379 13.6578C10.1578 13.7643 10.1043 13.8441 9.99737 13.8441H8.82121C8.68755 13.8441 8.60736 13.711 8.63409 13.5247L10.4251 6.62889C10.4518 6.5224 10.5053 6.46915 10.6122 6.46915ZM11.7349 10.7557L11.3072 8.78548L10.8528 10.7291C10.8528 10.8089 10.8528 10.8089 10.9062 10.8089H11.7081C11.7349 10.8356 11.7349 10.8089 11.7349 10.7557Z" fill="white"/>
    <path d="M16.2524 11.4219C16.1722 11.4219 16.1455 11.4486 16.1455 11.5551V13.685C16.1455 13.7649 16.092 13.8448 16.0118 13.8448H14.702C14.6218 13.8448 14.5684 13.7649 14.5684 13.685V6.65614C14.5684 6.52302 14.6218 6.44315 14.7287 6.44315H16.493C17.0009 6.44315 17.4553 6.52302 17.8028 6.73602C18.4176 7.10876 18.7651 7.801 18.7651 8.81273C18.7651 10.0375 18.3909 10.7031 17.7761 11.0758C17.4286 11.3154 17.0009 11.3953 16.493 11.3953H16.2524V11.4219ZM16.1989 7.98737C16.1455 7.98737 16.1455 7.98737 16.1455 8.06724V9.85109C16.1455 9.93096 16.1455 9.93096 16.1989 9.93096H16.5732C16.9741 9.93096 17.188 9.55822 17.188 8.94585C17.188 8.38674 16.9741 8.01399 16.5732 8.01399H16.1989V7.98737Z" fill="white"/>
    <path d="M22.8282 10.6764V6.68277C22.8282 6.54964 22.9084 6.44315 23.0153 6.44315H24.0043C24.1113 6.44315 24.1915 6.54964 24.1915 6.68277V13.5785C24.1915 13.7116 24.0845 13.8181 24.0043 13.8181H22.4807C22.4005 13.8181 22.3203 13.7383 22.2936 13.6584L21.0907 10.144L20.9036 9.58484V13.5785C20.9036 13.7116 20.8234 13.8181 20.7164 13.8181H19.7007C19.5937 13.8181 19.5135 13.7116 19.5135 13.5785V6.70939C19.5135 6.57627 19.5937 6.46977 19.7007 6.46977H21.2243C21.3045 6.46977 21.3847 6.54964 21.4114 6.62952L22.6411 10.1972L22.8282 10.6764Z" fill="white"/>
    <path d="M25.3677 13.8451C25.2607 13.8451 25.1805 13.7386 25.1805 13.6054V6.70968C25.1805 6.57656 25.2607 6.47006 25.3677 6.47006H28.8694C28.9763 6.47006 29.0565 6.57656 29.0565 6.70968V7.74804C29.0565 7.88116 28.9496 7.98766 28.8694 7.98766H26.7844C26.7577 7.98766 26.7309 8.01429 26.7309 8.04091V9.21239C26.7309 9.23901 26.7577 9.26564 26.7844 9.26564H28.4684C28.5754 9.26564 28.6556 9.37214 28.6556 9.50526V10.5436C28.6556 10.6767 28.5486 10.7832 28.4684 10.7832H26.7844C26.7577 10.7832 26.7309 10.8099 26.7309 10.8365V12.2476C26.7309 12.2742 26.7577 12.3008 26.7844 12.3008H28.8694C28.9763 12.3008 29.0565 12.4073 29.0565 12.5405V13.5788C29.0565 13.7119 28.9496 13.8184 28.8694 13.8184H25.3677V13.8451Z" fill="white"/>
    <path d="M31.5693 6.47006H33.0127C33.1197 6.47006 33.1731 6.54994 33.1999 6.65643L34.9908 13.5522C35.0176 13.7119 34.9374 13.8451 34.8037 13.8451H33.5474C33.4672 13.8451 33.387 13.7652 33.3602 13.6853L33.0929 12.434C33.0662 12.3541 33.0395 12.3541 32.986 12.3541H31.5425C31.4891 12.3541 31.4356 12.3807 31.4356 12.434L31.1683 13.6587C31.1416 13.7386 31.0881 13.8451 30.9812 13.8451H29.805C29.6714 13.8451 29.5912 13.7119 29.6179 13.5256L31.4089 6.62981C31.4089 6.52331 31.4891 6.47006 31.5693 6.47006ZM32.692 10.7566L32.2643 8.81302L31.8099 10.7566C31.8099 10.8365 31.8099 10.8365 31.8633 10.8365H32.6652C32.692 10.8365 32.692 10.8099 32.692 10.7566Z" fill="white"/>
    <path d="M41.2191 6.70968V13.6054C41.2191 13.7386 41.1389 13.8451 41.032 13.8451H39.8559C39.7489 13.8451 39.6687 13.7386 39.6687 13.6054V10.091L39.0005 12.1677C38.9737 12.221 38.947 12.2476 38.8935 12.2476H37.851C37.7976 12.2476 37.7708 12.221 37.7441 12.1677L37.0758 10.0644V13.5788C37.0758 13.7119 36.9957 13.8184 36.8887 13.8184H35.7126C35.6056 13.8184 35.5255 13.7119 35.5255 13.5788V6.70968C35.5255 6.57656 35.6056 6.47006 35.7126 6.47006H37.2897C37.3966 6.47006 37.4501 6.54994 37.4768 6.62981L38.3857 9.45201C38.4124 9.55851 38.4391 9.55851 38.4659 9.45201L39.348 6.68306C39.4014 6.54994 39.4816 6.47006 39.5886 6.47006H41.0588C41.1389 6.47006 41.2191 6.57656 41.2191 6.70968Z" fill="white"/>
    <path d="M43.7318 6.47006H45.1753C45.2822 6.47006 45.3357 6.54994 45.3624 6.65643L47.1534 13.5522C47.1801 13.7119 47.0999 13.8451 46.9663 13.8451H45.7099C45.6297 13.8451 45.5495 13.7652 45.5228 13.6853L45.2555 12.434C45.2288 12.3541 45.202 12.3541 45.1486 12.3541H43.7585C43.7051 12.3541 43.6516 12.3807 43.6516 12.434L43.3843 13.6587C43.3576 13.7386 43.3041 13.8451 43.1972 13.8451H42.021C41.8874 13.8451 41.8072 13.7119 41.8339 13.5256L43.6249 6.62981C43.5714 6.52331 43.6516 6.47006 43.7318 6.47006ZM44.8545 10.7566L44.4268 8.81302L43.9724 10.7566C43.9724 10.8365 43.9724 10.8365 44.0259 10.8365H44.8278C44.8545 10.8365 44.8813 10.8099 44.8545 10.7566Z" fill="white"/>
    <path d="M50.9759 10.6764V6.68277C50.9759 6.54964 51.0561 6.44315 51.163 6.44315H52.1521C52.259 6.44315 52.3392 6.54964 52.3392 6.68277V13.5785C52.3392 13.7116 52.2322 13.8181 52.1521 13.8181H50.6284C50.5482 13.8181 50.468 13.7383 50.4413 13.6584L49.2384 10.144L49.0513 9.58484V13.5785C49.0513 13.7116 48.9711 13.8181 48.8641 13.8181H47.8484C47.7414 13.8181 47.6613 13.7116 47.6613 13.5785V6.70939C47.6613 6.57627 47.7414 6.46977 47.8484 6.46977H49.372C49.4522 6.46977 49.5324 6.54964 49.5591 6.62952L50.7888 10.1972L50.9759 10.6764Z" fill="white"/>
    <path d="M31.2752 111.876C29.6179 111.876 28.014 110.785 27.5062 109.347C26.731 107.111 28.0408 105.167 28.6556 104.421C28.8694 104.182 28.7892 103.862 28.4417 103.49C26.7844 101.573 26.3567 98.9901 26.2231 97.6056C26.0627 95.6886 26.2231 94.4107 27.5329 92.2008C27.9071 91.5618 27.8002 90.6566 27.6131 90.3637C26.624 88.5533 25.929 86.5298 25.6884 84.7992C25.3944 82.829 25.8221 81.0984 26.5973 78.995C27.1854 77.4242 27.2923 75.7468 27.3992 73.9896C27.426 73.5636 27.4527 73.1376 27.4794 72.7117C27.6665 70.5284 27.4794 69.6765 25.8756 68.2654C25.5013 67.9192 24.9133 67.4134 24.245 66.8276C22.0263 64.884 18.979 62.2216 18.5246 61.6891C18.3642 61.4761 18.0969 61.2365 17.7761 60.8904C15.8247 58.8669 11.7349 54.6868 11.3607 48.3768C11.1201 40.1232 15.2367 33.5736 23.8975 28.3285L24.2717 28.1155L24.0044 28.435C22.4005 30.4585 21.7055 32.1092 21.5986 34.1593V34.1859L21.5719 34.2126L21.465 34.2924C18.4444 36.3425 15.8247 38.1264 14.7822 42.1999C13.4724 47.232 14.5416 51.5451 18.0969 55.3524C22.053 59.6124 25.1004 61.4228 27.319 62.7807C28.6556 63.5794 29.6446 64.1652 30.2862 64.9905C31.7831 66.8809 32.3979 69.4368 33.0929 72.3922C33.2266 72.9513 33.3602 73.537 33.4939 74.1227C34.1622 73.4838 34.5631 72.5519 35.1245 71.2739C35.472 70.4486 35.9264 69.4102 36.5412 68.2121C37.2362 66.8809 38.1451 65.7626 38.8668 64.8574C39.1608 64.4847 39.4014 64.1918 39.6153 63.8989C40.4439 62.5943 42.1547 60.3046 43.4111 58.6539C44.0259 57.8552 44.507 57.2162 44.7209 56.8967L44.8813 56.6571C46.4317 54.4472 46.8326 53.8615 46.6455 49.8944C46.3782 43.7708 41.6736 39.2712 38.8935 37.1413C36.5145 35.3042 33.6275 34.9314 31.7029 34.6652L31.4891 34.6386L30.9812 34.5587L31.4891 34.4788C33.7345 34.1061 34.9374 33.7866 36.3274 33.2008C36.4877 32.7748 36.4076 31.6566 36.2739 30.7514L36.2472 30.5916L36.3808 30.6715C38.7599 31.9228 42.5022 34.6119 45.0416 37.3276C46.9663 39.3777 48.1424 41.4811 48.5167 42.3863C49.773 45.315 51.0027 51.5451 45.309 60.1715C42.2349 64.8308 41.1122 68.0524 40.2033 70.6349C39.8024 71.7798 39.4549 72.7915 39.0005 73.6968C38.8133 74.0961 38.5995 74.5221 38.3589 74.9481C36.9422 77.7437 35.0175 81.551 34.5631 83.2283C34.082 85.0388 33.8414 87.9143 34.6433 90.6033C34.6968 90.8163 34.777 91.0027 34.8304 91.2157C35.4185 93.1327 35.9799 94.9698 35.071 96.9932C34.9641 97.2329 34.8572 97.4725 34.7235 97.7387C34.0285 99.2563 32.986 101.573 33.1998 102.212C33.3068 102.558 33.681 103.09 34.1087 103.676C34.6166 104.395 35.1779 105.22 35.4185 105.886C35.9264 107.324 36.0601 108.974 33.4404 111.104C32.8523 111.583 32.1039 111.876 31.2752 111.876ZM32.291 76.9982L32.1573 77.5307C32.1573 77.5573 31.6762 79.421 31.4356 81.4179C31.3287 82.2965 31.5425 82.9887 31.7564 83.7342C32.0237 84.6927 32.3177 85.6512 31.9168 87.009C31.1683 89.5384 29.3506 91.5618 29.3506 91.5885C27.8002 93.9847 27.025 95.5821 27.1854 97.4725C27.3458 99.3362 27.9606 101.786 29.2971 103.17C29.9119 103.756 29.7248 104.501 29.4842 104.821C28.9764 105.486 27.6665 107.244 28.6021 109.161C28.9496 109.88 29.5377 110.705 30.9812 110.705C31.5693 110.705 32.3979 110.359 32.9325 109.933C34.8839 108.255 34.7235 107.137 34.67 106.578V106.525C34.5899 105.992 33.8147 104.555 33.2266 103.756C32.4781 102.744 31.997 101.972 32.4781 100.907C32.5583 100.694 32.7722 100.188 33.0127 99.5758C33.4939 98.3777 34.082 96.8867 34.3493 96.4075C34.8304 95.449 34.6968 93.8249 33.975 91.8281C33.9483 91.7748 32.291 86.6629 33.5473 83.042C33.6275 82.8024 33.7077 82.5361 33.8147 82.2699C34.2691 80.8588 34.9106 78.9418 36.3274 76.5456L36.4343 76.3592C36.9956 75.4274 37.6639 74.2559 38.1718 73.1376C38.4926 72.4454 38.7331 71.7265 39.0005 70.9278C39.7222 68.8777 40.6845 66.0555 43.6249 61.0501C44.2932 59.9319 45.7901 57.6155 46.2713 56.8967C46.7524 56.1778 47.7147 54.0745 47.9019 51.8114C47.5811 52.9829 47.1534 54.4472 46.0307 56.2044C45.1218 57.6155 44.0526 59.0533 43.2507 60.0916C42.9299 60.491 42.6626 60.8637 42.5022 61.1034C42.2349 61.4761 41.5934 62.4346 40.9251 63.4463C40.5241 64.0587 40.0964 64.671 39.7222 65.2302C39.5618 65.4431 39.4282 65.6828 39.2678 65.9224C38.7331 66.7211 38.1718 67.5199 37.6906 68.4251C37.2629 69.2238 36.7016 70.4486 36.0066 72.0194C35.3918 73.4571 33.9216 75.5072 33.3335 76.1728C33.28 76.2527 33.1731 76.3326 33.0662 76.3326C32.986 76.3326 32.8791 76.2793 32.7989 76.0663C32.6385 75.5339 32.4781 74.6286 32.3177 73.8033C32.2375 73.3506 32.1573 72.9246 32.1039 72.6318C31.4623 69.8096 30.8475 67.1471 29.5377 65.4698C29.0031 64.8042 28.0942 64.245 26.8379 63.4996C24.245 61.9287 20.3155 59.3728 16.4128 55.1661C14.9426 53.5686 13.8734 50.6665 12.9378 48.1106C12.8576 47.8976 12.7774 47.6846 12.6972 47.4716C13.0714 50.2139 13.7397 52.6367 14.6486 54.3141C15.7713 56.4441 17.9097 59.1864 19.4334 60.7839C19.5136 60.8637 19.5938 60.9702 19.7007 61.0767C20.4225 61.8755 22.1065 63.7658 25.5281 66.5348L26.5438 67.44C28.415 69.0907 28.6823 70.2622 28.4685 72.685C28.4417 73.0578 28.415 73.4571 28.3883 73.8299V73.9364C28.2546 77.6106 27.5329 79.5808 27.5329 79.6074C26.8379 81.4978 26.6508 82.8822 26.9181 84.3732C27.319 86.6097 27.9338 88.4734 28.7892 90.0975C28.8962 89.9644 29.0298 89.8046 29.2169 89.6182C29.511 89.2721 29.8852 88.8461 30.1792 88.4468C31.2485 86.9292 31.1416 85.2252 30.8208 82.616C30.5268 80.0334 32.0237 77.4242 32.0504 77.3976L32.291 76.9982Z" fill="white"/>
</svg>
